<?xml version="1.0" standalone="no"?>
<!DOCTYPE svg PUBLIC "-//W3C//DTD SVG 20010904//EN"
 "http://www.w3.org/TR/2001/REC-SVG-20010904/DTD/svg10.dtd">
<svg version="1.0" xmlns="http://www.w3.org/2000/svg"
 width="16.000000pt" height="16.000000pt" viewBox="0 0 16.000000 16.000000"
 preserveAspectRatio="xMidYMid meet">
<metadata>
Created by potrace 1.11, written by Peter Selinger 2001-2013
</metadata>
<g transform="translate(0.000000,16.000000) scale(0.003200,-0.003200)"
fill="#000000" stroke="none">
<path d="M10 2500 l0 -2490 2495 0 2495 0 0 2490 0 2490 -2495 0 -2495 0 0
-2490z m2610 1472 l0 -129 104 -17 c244 -39 448 -137 674 -321 l32 -26 0 57
c0 52 -4 62 -32 92 l-33 34 80 74 c44 40 82 74 85 74 3 0 67 -62 142 -137
l137 -138 -73 -80 -73 -79 -36 27 c-29 22 -46 27 -92 27 l-56 0 49 -57 c199
-233 302 -517 302 -832 0 -271 -75 -519 -218 -720 -226 -319 -545 -519 -907
-571 -90 -12 -300 -12 -390 0 -555 79 -1022 529 -1110 1070 -19 122 -19 319 0
440 38 229 150 466 298 628 l40 42 -59 0 c-49 0 -62 -4 -86 -27 l-28 -27 -80
79 -80 80 137 137 c76 76 140 138 143 138 3 0 41 -34 85 -74 l80 -74 -32 -34
c-30 -30 -33 -40 -33 -92 l0 -58 53 48 c113 103 287 207 427 254 76 26 245 60
295 60 l35 0 0 130 0 130 110 0 110 0 0 -128z"/>
<path d="M2325 3700 c-171 -27 -376 -112 -510 -212 -161 -120 -312 -303 -390
-471 -78 -169 -115 -393 -96 -586 30 -292 134 -513 339 -718 231 -230 507
-343 842 -343 271 0 499 72 700 221 380 281 548 707 464 1175 -39 222 -137
406 -312 586 -163 168 -356 280 -572 330 -98 22 -366 33 -465 18z m245 -593
l0 -443 33 -12 c42 -15 101 -77 116 -121 25 -75 7 -177 -40 -227 -11 -11 -41
-31 -67 -43 -42 -20 -50 -29 -72 -82 -14 -32 -27 -59 -30 -59 -3 0 -16 27 -30
59 -22 53 -30 62 -73 83 -86 39 -123 106 -115 204 6 68 44 127 110 169 l47 30
0 443 1 442 60 0 60 0 0 -443z"/>
</g>
</svg>
